<svg width="40" height="40" viewBox="0 0 40 40" fill="none" xmlns="http://www.w3.org/2000/svg">
<circle cx="20" cy="20" r="20" fill="#1C1335"/>
<path d="M16.364 22.716C16.812 22.796 17.192 23.032 17.504 23.424C17.816 23.816 17.972 24.26 17.972 24.756C17.972 25.18 17.86 25.564 17.636 25.908C17.42 26.244 17.104 26.512 16.688 26.712C16.272 26.904 15.788 27 15.236 27H11.9V18.66H15.08C15.648 18.66 16.136 18.756 16.544 18.948C16.952 19.14 17.26 19.4 17.468 19.728C17.676 20.048 17.78 20.408 17.78 20.808C17.78 21.288 17.652 21.688 17.396 22.008C17.14 22.328 16.796 22.564 16.364 22.716ZM13.268 22.164H14.96C15.408 22.164 15.756 22.064 16.004 21.864C16.26 21.656 16.388 21.36 16.388 20.976C16.388 20.6 16.26 20.308 16.004 20.1C15.756 19.884 15.408 19.776 14.96 19.776H13.268V22.164ZM15.116 25.884C15.58 25.884 15.944 25.772 16.208 25.548C16.472 25.324 16.604 25.012 16.604 24.612C16.604 24.204 16.464 23.88 16.184 23.64C15.904 23.4 15.532 23.28 15.068 23.28H13.268V25.884H15.116ZM26.3106 27H24.9426L20.8266 20.772V27H19.4586V18.648H20.8266L24.9426 24.864V18.648H26.3106V27Z" fill="white"/>
</svg>
