<svg width="14" height="14" viewBox="0 0 14 14" fill="none" xmlns="http://www.w3.org/2000/svg">
<path fill-rule="evenodd" clip-rule="evenodd" d="M14 1.63333L13.3778 2.25556C12.4444 1.4 11.2778 0.933333 10.1111 0.933333C8.94444 0.933333 7.77778 1.4 6.84444 2.25556L6.22222 1.63333C7.31111 0.544444 8.71111 0 10.1111 0C11.5111 0 12.9111 0.544444 14 1.63333ZM10.1111 1.78889C11.0444 1.78889 11.9778 2.17778 12.6778 2.87778L12.0556 3.5C11.5111 2.95556 10.8111 2.72222 10.1111 2.72222C9.41111 2.72222 8.71111 2.95556 8.16667 3.5L7.54444 2.87778C8.24444 2.17778 9.17778 1.78889 10.1111 1.78889ZM12.4444 7.77778H10.8889V4.66667H9.33333V7.77778H1.55556C0.7 7.77778 0 8.47778 0 9.33333V12.4444C0 13.3 0.7 14 1.55556 14H12.4444C13.3 14 14 13.3 14 12.4444V9.33333C14 8.47778 13.3 7.77778 12.4444 7.77778ZM2.33333 11.6667H3.88889V10.1111H2.33333V11.6667ZM6.61111 11.6667H5.05556V10.1111H6.61111V11.6667ZM7.77778 11.6667H9.33333V10.1111H7.77778V11.6667Z" fill="white"/>
</svg>
