<svg width="15" height="16" viewBox="0 0 15 16" fill="none" xmlns="http://www.w3.org/2000/svg">
<path fill-rule="evenodd" clip-rule="evenodd" d="M9.42902 0.468751C9.42902 0.209657 9.63868 0 9.89778 0C10.1569 0 10.3665 0.209657 10.3665 0.468751V1.40625C10.3665 1.66535 10.1569 1.875 9.89778 1.875C9.63868 1.875 9.42902 1.66535 9.42902 1.40625V0.468751ZM13.6542 6.64308L7.41393 0.401907C7.0459 0.0347813 6.45055 0.0391251 6.08733 0.401438C5.72205 0.767658 5.72205 1.36228 6.08733 1.72803L12.3285 7.96877C12.6941 8.33439 13.2885 8.33439 13.6542 7.96877C14.0208 7.60214 14.0208 7.00964 13.6542 6.64308ZM5.62436 2.59079L5.57739 2.82623C5.24655 4.48117 4.44248 6.05339 3.35495 7.32767L6.75018 10.7229C8.0243 9.63558 9.57487 8.80993 11.2299 8.47867L11.4657 8.43171L5.62436 2.59079ZM2.73248 8.03092L0.412068 10.3509C-0.136215 10.8991 -0.138496 11.7893 0.412068 12.3398L1.73776 13.6655C2.28604 14.2138 3.17617 14.2161 3.72673 13.6655L6.04692 11.3453L2.73248 8.03092ZM3.06392 11.677C2.88082 11.8601 2.58417 11.8601 2.40107 11.677C2.21798 11.4939 2.21798 11.1973 2.40107 11.0142L3.06392 10.3513C3.24701 10.1682 3.54367 10.1682 3.72676 10.3513C3.90986 10.5344 3.90986 10.8311 3.72676 11.0142L3.06392 11.677ZM8.00408 13.915L8.64174 13.2773C9.19234 12.7268 9.19052 11.8367 8.64177 11.2888L8.16815 10.8149C7.90637 10.9907 7.65636 11.1818 7.4133 11.3856L7.97893 11.9521C8.16158 12.1338 8.16287 12.4296 7.97893 12.6145L7.33074 13.2627L6.37817 12.3398L5.05242 13.6655L7.17921 15.7264C7.54215 16.0903 8.13805 16.0923 8.50443 15.7259C8.87018 15.3602 8.87018 14.7655 8.50443 14.3997L8.00408 13.915ZM13.6478 3.75001H12.7103C12.4512 3.75001 12.2415 3.95966 12.2415 4.21876C12.2415 4.47785 12.4512 4.68751 12.7103 4.68751H13.6478C13.9069 4.68751 14.1165 4.47785 14.1165 4.21876C14.1165 3.95966 13.9069 3.75001 13.6478 3.75001ZM12.3788 1.07481C12.5619 0.891721 12.8586 0.891721 13.0417 1.07481C13.2248 1.25791 13.2248 1.55457 13.0417 1.73766L12.1042 2.67516C11.9211 2.85829 11.6244 2.85826 11.4413 2.67516C11.2582 2.49207 11.2582 2.19541 11.4413 2.01232L12.3788 1.07481Z" fill="white"/>
</svg>
